<?xml version="1.0" standalone="no"?>
<!DOCTYPE svg PUBLIC "-//W3C//DTD SVG 20010904//EN"
 "http://www.w3.org/TR/2001/REC-SVG-20010904/DTD/svg10.dtd">
<svg version="1.0" xmlns="http://www.w3.org/2000/svg"
 width="500.000000pt" height="500.000000pt" viewBox="0 0 500.000000 500.000000"
 preserveAspectRatio="xMidYMid meet">
<metadata>
Created by potrace 1.14, written by Peter Selinger 2001-2017
</metadata>
<g transform="translate(0.000000,500.000000) scale(0.100000,-0.100000)"
fill="#000000" stroke="none">
<path d="M1897 4516 c-48 -24 -76 -60 -86 -107 -13 -60 23 -142 73 -168 34
-17 80 -34 89 -33 4 1 7 -2 7 -6 0 -5 6 -9 13 -9 18 0 198 -72 215 -85 6 -6
12 -8 12 -5 0 3 45 -17 100 -44 56 -27 105 -49 110 -49 6 0 10 -4 10 -10 0 -5
6 -10 13 -10 16 0 196 -107 311 -185 32 -22 66 -44 74 -50 9 -5 21 -14 27 -20
7 -5 27 -21 45 -35 55 -41 95 -75 98 -82 2 -5 8 -8 12 -8 12 0 95 -75 215
-195 114 -115 189 -198 265 -296 14 -18 31 -38 38 -46 7 -7 10 -13 5 -13 -4 0
0 -5 10 -11 9 -5 17 -16 17 -24 0 -7 4 -15 8 -17 15 -6 91 -125 85 -132 -4 -3
-2 -6 4 -6 10 0 93 -135 93 -151 0 -5 5 -9 11 -9 5 0 7 -4 4 -10 -3 -5 -3 -10
2 -10 8 0 36 -54 33 -66 -1 -4 2 -10 7 -13 5 -3 22 -33 37 -66 51 -108 79
-170 82 -180 2 -9 29 -81 49 -130 4 -11 7 -24 6 -29 -1 -4 3 -13 8 -20 9 -10
66 -200 76 -251 2 -11 13 -60 25 -110 20 -90 30 -142 35 -180 1 -11 3 -20 4
-20 1 0 4 -20 6 -45 2 -25 7 -67 10 -95 4 -27 8 -70 11 -95 7 -78 10 -421 4
-509 -7 -110 13 -159 80 -194 89 -48 188 -14 224 76 26 64 27 473 2 732 -5 61
-17 148 -21 165 -2 8 -7 40 -10 70 -4 30 -8 57 -10 60 -2 3 -6 25 -10 50 -4
25 -8 47 -10 51 -2 3 -7 21 -10 40 -3 19 -17 77 -31 129 -14 52 -27 100 -28
105 -2 6 -6 17 -9 25 -5 14 -40 120 -42 130 -1 3 -5 13 -9 22 -4 9 -9 22 -10
30 -2 7 -8 24 -13 38 -6 14 -20 48 -31 75 -11 28 -28 68 -38 90 -10 22 -18 42
-19 45 -4 16 -31 66 -38 71 -5 3 -7 8 -5 10 3 4 -62 139 -72 149 -9 9 -51 85
-57 103 -3 9 -10 17 -15 17 -5 0 -6 5 -3 10 3 6 1 10 -4 10 -6 0 -11 5 -11 10
0 6 -5 16 -10 23 -6 7 -29 41 -51 77 -23 36 -45 67 -50 68 -5 2 -9 10 -9 18 0
8 -4 14 -10 14 -5 0 -10 5 -10 11 0 6 -6 17 -12 24 -18 19 -29 33 -63 80 -17
21 -37 47 -45 56 -8 9 -33 38 -55 64 -85 101 -195 216 -301 312 -108 98 -121
109 -189 161 -33 25 -62 49 -65 52 -7 8 -260 182 -285 196 -33 18 -98 56 -130
75 -16 10 -41 24 -55 30 -14 6 -33 18 -44 27 -10 9 -20 16 -22 15 -2 -1 -54
22 -116 51 -191 90 -418 176 -475 181 -20 1 -51 -6 -76 -19z"/>
<path d="M1624 3593 c-53 -31 -59 -37 -77 -78 -26 -59 -15 -125 31 -178 14
-16 94 -57 112 -57 4 0 25 -8 46 -17 22 -9 41 -17 44 -18 44 -13 286 -133 337
-167 23 -15 46 -28 52 -28 6 0 11 -4 11 -10 0 -5 7 -10 15 -10 8 0 15 -4 15
-10 0 -5 5 -10 11 -10 22 0 237 -178 339 -280 111 -111 111 -110 208 -241 34
-46 66 -88 70 -94 36 -47 187 -325 177 -325 -4 0 1 -10 9 -22 9 -12 16 -30 16
-40 0 -10 5 -18 10 -18 6 0 9 -3 8 -7 -2 -11 13 -66 22 -78 13 -19 78 -249 85
-300 1 -11 7 -47 13 -80 11 -61 21 -145 28 -225 2 -25 3 -115 3 -200 -1 -85
-1 -164 -1 -175 1 -38 6 -65 14 -65 4 0 8 -5 8 -10 0 -6 8 -19 18 -29 72 -76
212 -57 258 37 17 33 19 62 18 277 0 132 -4 260 -7 285 -17 120 -20 146 -22
160 -5 36 -19 102 -42 195 -13 55 -26 107 -28 115 -19 80 -146 394 -181 447
-8 13 -14 24 -13 25 4 9 -140 241 -153 246 -5 2 -8 8 -8 12 0 8 -68 102 -115
159 -108 130 -246 264 -385 375 -25 20 -50 40 -56 45 -5 4 -39 28 -75 52 -35
24 -65 47 -67 51 -2 5 -8 8 -13 8 -5 0 -32 15 -61 34 -68 43 -288 157 -288
150 0 -4 -6 -2 -12 4 -7 5 -47 23 -88 40 -194 78 -232 85 -286 55z"/>
<path d="M1218 2834 c-97 -34 -139 -135 -93 -224 21 -41 56 -65 138 -96 40
-14 82 -33 95 -40 12 -8 22 -12 22 -9 0 5 62 -27 175 -90 28 -15 59 -36 71
-46 11 -11 24 -19 28 -19 14 0 157 -122 228 -194 87 -89 99 -103 128 -146 13
-19 30 -39 37 -43 7 -4 13 -13 13 -19 0 -6 6 -19 14 -27 34 -39 156 -278 160
-316 1 -5 9 -27 19 -49 9 -21 17 -45 17 -53 0 -8 4 -22 9 -31 5 -9 11 -30 14
-47 3 -16 8 -41 11 -55 3 -14 8 -43 11 -65 4 -22 9 -51 12 -65 3 -14 6 -110 8
-215 3 -197 8 -224 45 -263 82 -87 248 -40 269 76 13 72 4 396 -13 487 -2 11
-7 40 -11 65 -11 67 -12 71 -25 120 -7 25 -13 50 -15 55 -1 6 -4 17 -7 25 -3
8 -13 40 -23 70 -22 71 -106 263 -118 271 -5 3 -7 8 -6 10 10 14 -194 319
-213 319 -4 0 -8 5 -8 12 0 16 -203 214 -280 273 -36 27 -66 53 -68 57 -2 4
-7 8 -11 8 -8 0 -137 81 -158 100 -7 6 -13 8 -13 4 0 -4 -9 1 -21 12 -12 10
-24 18 -28 18 -7 -2 -40 12 -61 26 -39 25 -228 100 -270 106 -19 3 -37 7 -40
9 -3 1 -22 -3 -42 -11z"/>
<path d="M855 1932 c-101 -52 -122 -172 -44 -255 18 -20 65 -47 80 -47 16 0
149 -68 165 -85 9 -8 20 -15 25 -15 12 0 127 -114 161 -160 51 -68 92 -161
124 -285 3 -11 7 -72 9 -136 5 -143 20 -187 75 -218 41 -23 98 -29 141 -16 37
11 96 79 102 117 11 76 -4 303 -24 355 -5 13 -6 23 -3 23 2 0 0 8 -5 18 -6 11
-12 31 -15 46 -9 50 -94 215 -149 288 -74 98 -183 208 -207 208 -6 0 -10 4
-10 8 0 8 -174 116 -189 118 -3 0 -23 8 -45 17 -21 9 -44 17 -52 17 -7 0 -15
4 -18 9 -9 14 -91 9 -121 -7z"/>
</g>
</svg>
